# MagicaVoxel @ Ephtracy

# group
o 

# material
mtllib Base_Lampe.mtl
usemtl palette

# normals
vn -1 0 0
vn 1 0 0
vn 0 0 1
vn 0 0 -1
vn 0 -1 0
vn 0 1 0

# texcoords
vt 0.982422 0.5
vt 0.990234 0.5

# verts
v -1.4 3.2 -0.9
v -1.4 3.2 -1
v -1.4 3.4 -0.9
v -1.4 3.4 -1
v -1.3 3.1 0.9
v -1.3 3.1 -1.1
v -1.3 3.2 -0.9
v -1.3 3.2 -1
v -1.3 3.4 -0.9
v -1.3 3.4 -1
v -1.3 3.5 0.9
v -1.3 3.5 -1.1
v -1.2 3.1 1
v -1.2 3.1 0.9
v -1.2 3.5 1
v -1.2 3.5 0.9
v -0.8 2.9 1.5
v -0.8 2.9 1
v -0.8 3.1 1
v -0.8 3.5 1
v -0.8 3.6 1.5
v -0.8 3.6 1
v -0.7 2.7 1.5
v -0.7 2.7 1
v -0.7 2.9 1.5
v -0.7 2.9 1
v -0.7 3.6 1.5
v -0.7 3.6 1
v -0.7 3.8 1.5
v -0.7 3.8 1
v -0.6 2.6 1.5
v -0.6 2.6 1
v -0.6 2.7 1.5
v -0.6 2.7 1
v -0.6 3.8 1.5
v -0.6 3.8 1
v -0.6 3.9 1.5
v -0.6 3.9 1
v -0.5 2.5 1.5
v -0.5 2.5 1
v -0.5 2.6 1.5
v -0.5 2.6 1
v -0.5 3.9 1.5
v -0.5 3.9 1
v -0.5 4 1.5
v -0.5 4 1
v -0.4 2.4 1.5
v -0.4 2.4 1
v -0.4 2.5 1.5
v -0.4 2.5 1
v -0.4 4 1.5
v -0.4 4 1
v -0.4 4.1 1.5
v -0.4 4.1 1
v -0.2 2.3 1.5
v -0.2 2.3 1
v -0.2 2.4 1.5
v -0.2 2.4 1
v -0.2 4.1 1.5
v -0.2 4.1 1
v -0.2 4.2 1.5
v -0.2 4.2 1
v 1.2 3.1 0.9
v 1.2 3.1 0.8
v 1.2 3.1 -0.9
v 1.2 3.1 -1
v 1.2 3.5 0.9
v 1.2 3.5 0.8
v 1.2 3.5 -0.9
v 1.2 3.5 -1
v 1.3 3.1 0.8
v 1.3 3.1 -0.9
v 1.3 3.1 -1
v 1.3 3.1 -1.1
v 1.3 3.5 0.8
v 1.3 3.5 -0.9
v 1.3 3.5 -1
v 1.3 3.5 -1.1
v -1.2 3.1 0.8
v -1.2 3.1 -0.9
v -1.2 3.1 -1
v -1.2 3.1 -1.1
v -1.2 3.5 0.8
v -1.2 3.5 -0.9
v -1.2 3.5 -1
v -1.2 3.5 -1.1
v -1.1 3.1 0.9
v -1.1 3.1 0.8
v -1.1 3.1 -0.9
v -1.1 3.1 -1
v -1.1 3.5 0.9
v -1.1 3.5 0.8
v -1.1 3.5 -0.9
v -1.1 3.5 -1
v 0.5 2.3 1.5
v 0.5 2.3 1
v 0.5 2.4 1.5
v 0.5 2.4 1
v 0.5 4.1 1.5
v 0.5 4.1 1
v 0.5 4.2 1.5
v 0.5 4.2 1
v 0.7 2.4 1.5
v 0.7 2.4 1
v 0.7 2.5 1.5
v 0.7 2.5 1
v 0.7 4 1.5
v 0.7 4 1
v 0.7 4.1 1.5
v 0.7 4.1 1
v 0.8 2.5 1.5
v 0.8 2.5 1
v 0.8 2.6 1.5
v 0.8 2.6 1
v 0.8 3.9 1.5
v 0.8 3.9 1
v 0.8 4 1.5
v 0.8 4 1
v 0.9 2.6 1.5
v 0.9 2.6 1
v 0.9 2.7 1.5
v 0.9 2.7 1
v 0.9 3.8 1.5
v 0.9 3.8 1
v 0.9 3.9 1.5
v 0.9 3.9 1
v 1 2.7 1.5
v 1 2.7 1
v 1 2.9 1.5
v 1 2.9 1
v 1 3.6 1.5
v 1 3.6 1
v 1 3.8 1.5
v 1 3.8 1
v 1.1 2.9 1.5
v 1.1 2.9 1
v 1.1 3.1 1
v 1.1 3.5 1
v 1.1 3.6 1.5
v 1.1 3.6 1
v 1.3 3.1 1
v 1.3 3.1 0.9
v 1.3 3.5 1
v 1.3 3.5 0.9
v 1.4 3.1 0.9
v 1.4 3.1 -1.1
v 1.4 3.2 -0.9
v 1.4 3.2 -1
v 1.4 3.4 -0.9
v 1.4 3.4 -1
v 1.4 3.5 0.9
v 1.4 3.5 -1.1
v 1.5 3.2 -0.9
v 1.5 3.2 -1
v 1.5 3.4 -0.9
v 1.5 3.4 -1
v -0.8 2.9 1.5
v -0.8 3.6 1.5
v -0.7 2.7 1.5
v -0.7 2.9 1.5
v -0.7 3.6 1.5
v -0.7 3.8 1.5
v -0.6 2.6 1.5
v -0.6 2.7 1.5
v -0.6 3.8 1.5
v -0.6 3.9 1.5
v -0.5 2.5 1.5
v -0.5 2.6 1.5
v -0.5 3.9 1.5
v -0.5 4 1.5
v -0.4 2.4 1.5
v -0.4 2.5 1.5
v -0.4 4 1.5
v -0.4 4.1 1.5
v -0.2 2.3 1.5
v -0.2 2.4 1.5
v -0.2 4.1 1.5
v -0.2 4.2 1.5
v 0.5 2.3 1.5
v 0.5 2.4 1.5
v 0.5 4.1 1.5
v 0.5 4.2 1.5
v 0.7 2.4 1.5
v 0.7 2.5 1.5
v 0.7 4 1.5
v 0.7 4.1 1.5
v 0.8 2.5 1.5
v 0.8 2.6 1.5
v 0.8 3.9 1.5
v 0.8 4 1.5
v 0.9 2.6 1.5
v 0.9 2.7 1.5
v 0.9 3.8 1.5
v 0.9 3.9 1.5
v 1 2.7 1.5
v 1 2.9 1.5
v 1 3.6 1.5
v 1 3.8 1.5
v 1.1 2.9 1.5
v 1.1 3.6 1.5
v -1.2 3.1 1
v -1.2 3.5 1
v -0.8 3.1 1
v -0.8 3.5 1
v 1.1 3.1 1
v 1.1 3.5 1
v 1.3 3.1 1
v 1.3 3.5 1
v -1.3 3.1 0.9
v -1.3 3.5 0.9
v -1.2 3.1 0.9
v -1.2 3.5 0.9
v 1.3 3.1 0.9
v 1.3 3.5 0.9
v 1.4 3.1 0.9
v 1.4 3.5 0.9
v -1.4 3.2 -0.9
v -1.4 3.4 -0.9
v -1.3 3.2 -0.9
v -1.3 3.4 -0.9
v -1.2 3.1 -0.9
v -1.2 3.5 -0.9
v -1.1 3.1 -0.9
v -1.1 3.5 -0.9
v 1.2 3.1 -0.9
v 1.2 3.5 -0.9
v 1.3 3.1 -0.9
v 1.3 3.5 -0.9
v 1.4 3.2 -0.9
v 1.4 3.4 -0.9
v 1.5 3.2 -0.9
v 1.5 3.4 -0.9
v -0.8 2.9 1
v -0.8 3.1 1
v -0.8 3.5 1
v -0.8 3.6 1
v -0.7 2.7 1
v -0.7 2.9 1
v -0.7 3.6 1
v -0.7 3.8 1
v -0.6 2.6 1
v -0.6 2.7 1
v -0.6 3.8 1
v -0.6 3.9 1
v -0.5 2.5 1
v -0.5 2.6 1
v -0.5 3.9 1
v -0.5 4 1
v -0.4 2.4 1
v -0.4 2.5 1
v -0.4 4 1
v -0.4 4.1 1
v -0.2 2.3 1
v -0.2 2.4 1
v -0.2 4.1 1
v -0.2 4.2 1
v 0.5 2.3 1
v 0.5 2.4 1
v 0.5 4.1 1
v 0.5 4.2 1
v 0.7 2.4 1
v 0.7 2.5 1
v 0.7 4 1
v 0.7 4.1 1
v 0.8 2.5 1
v 0.8 2.6 1
v 0.8 3.9 1
v 0.8 4 1
v 0.9 2.6 1
v 0.9 2.7 1
v 0.9 3.8 1
v 0.9 3.9 1
v 1 2.7 1
v 1 2.9 1
v 1 3.6 1
v 1 3.8 1
v 1.1 2.9 1
v 1.1 3.1 1
v 1.1 3.5 1
v 1.1 3.6 1
v -1.1 3.1 0.9
v -1.1 3.5 0.9
v 1.2 3.1 0.9
v 1.2 3.5 0.9
v -1.2 3.1 0.8
v -1.2 3.5 0.8
v -1.1 3.1 0.8
v -1.1 3.5 0.8
v 1.2 3.1 0.8
v 1.2 3.5 0.8
v 1.3 3.1 0.8
v 1.3 3.5 0.8
v -1.4 3.2 -1
v -1.4 3.4 -1
v -1.3 3.2 -1
v -1.3 3.4 -1
v -1.2 3.1 -1
v -1.2 3.5 -1
v -1.1 3.1 -1
v -1.1 3.5 -1
v 1.2 3.1 -1
v 1.2 3.5 -1
v 1.3 3.1 -1
v 1.3 3.5 -1
v 1.4 3.2 -1
v 1.4 3.4 -1
v 1.5 3.2 -1
v 1.5 3.4 -1
v -1.3 3.1 -1.1
v -1.3 3.5 -1.1
v -1.2 3.1 -1.1
v -1.2 3.5 -1.1
v 1.3 3.1 -1.1
v 1.3 3.5 -1.1
v 1.4 3.1 -1.1
v 1.4 3.5 -1.1
v -0.2 2.3 1.5
v 0.5 2.3 1.5
v -0.2 2.3 1
v 0.5 2.3 1
v -0.4 2.4 1.5
v -0.2 2.4 1.5
v 0.5 2.4 1.5
v 0.7 2.4 1.5
v -0.4 2.4 1
v -0.2 2.4 1
v 0.5 2.4 1
v 0.7 2.4 1
v -0.5 2.5 1.5
v -0.4 2.5 1.5
v 0.7 2.5 1.5
v 0.8 2.5 1.5
v -0.5 2.5 1
v -0.4 2.5 1
v 0.7 2.5 1
v 0.8 2.5 1
v -0.6 2.6 1.5
v -0.5 2.6 1.5
v 0.8 2.6 1.5
v 0.9 2.6 1.5
v -0.6 2.6 1
v -0.5 2.6 1
v 0.8 2.6 1
v 0.9 2.6 1
v -0.7 2.7 1.5
v -0.6 2.7 1.5
v 0.9 2.7 1.5
v 1 2.7 1.5
v -0.7 2.7 1
v -0.6 2.7 1
v 0.9 2.7 1
v 1 2.7 1
v -0.8 2.9 1.5
v -0.7 2.9 1.5
v 1 2.9 1.5
v 1.1 2.9 1.5
v -0.8 2.9 1
v -0.7 2.9 1
v 1 2.9 1
v 1.1 2.9 1
v -1.2 3.1 1
v -0.8 3.1 1
v 1.1 3.1 1
v 1.3 3.1 1
v -1.3 3.1 0.9
v -1.2 3.1 0.9
v -1.1 3.1 0.9
v 1.2 3.1 0.9
v 1.3 3.1 0.9
v 1.4 3.1 0.9
v -1.2 3.1 0.8
v -1.1 3.1 0.8
v 1.2 3.1 0.8
v 1.3 3.1 0.8
v -1.2 3.1 -0.9
v -1.1 3.1 -0.9
v 1.2 3.1 -0.9
v 1.3 3.1 -0.9
v -1.2 3.1 -1
v -1.1 3.1 -1
v 1.2 3.1 -1
v 1.3 3.1 -1
v -1.3 3.1 -1.1
v -1.2 3.1 -1.1
v 1.3 3.1 -1.1
v 1.4 3.1 -1.1
v -1.4 3.2 -0.9
v -1.3 3.2 -0.9
v 1.4 3.2 -0.9
v 1.5 3.2 -0.9
v -1.4 3.2 -1
v -1.3 3.2 -1
v 1.4 3.2 -1
v 1.5 3.2 -1
v -1.4 3.4 -0.9
v -1.3 3.4 -0.9
v 1.4 3.4 -0.9
v 1.5 3.4 -0.9
v -1.4 3.4 -1
v -1.3 3.4 -1
v 1.4 3.4 -1
v 1.5 3.4 -1
v -1.2 3.5 1
v -0.8 3.5 1
v 1.1 3.5 1
v 1.3 3.5 1
v -1.3 3.5 0.9
v -1.2 3.5 0.9
v -1.1 3.5 0.9
v 1.2 3.5 0.9
v 1.3 3.5 0.9
v 1.4 3.5 0.9
v -1.2 3.5 0.8
v -1.1 3.5 0.8
v 1.2 3.5 0.8
v 1.3 3.5 0.8
v -1.2 3.5 -0.9
v -1.1 3.5 -0.9
v 1.2 3.5 -0.9
v 1.3 3.5 -0.9
v -1.2 3.5 -1
v -1.1 3.5 -1
v 1.2 3.5 -1
v 1.3 3.5 -1
v -1.3 3.5 -1.1
v -1.2 3.5 -1.1
v 1.3 3.5 -1.1
v 1.4 3.5 -1.1
v -0.8 3.6 1.5
v -0.7 3.6 1.5
v 1 3.6 1.5
v 1.1 3.6 1.5
v -0.8 3.6 1
v -0.7 3.6 1
v 1 3.6 1
v 1.1 3.6 1
v -0.7 3.8 1.5
v -0.6 3.8 1.5
v 0.9 3.8 1.5
v 1 3.8 1.5
v -0.7 3.8 1
v -0.6 3.8 1
v 0.9 3.8 1
v 1 3.8 1
v -0.6 3.9 1.5
v -0.5 3.9 1.5
v 0.8 3.9 1.5
v 0.9 3.9 1.5
v -0.6 3.9 1
v -0.5 3.9 1
v 0.8 3.9 1
v 0.9 3.9 1
v -0.5 4 1.5
v -0.4 4 1.5
v 0.7 4 1.5
v 0.8 4 1.5
v -0.5 4 1
v -0.4 4 1
v 0.7 4 1
v 0.8 4 1
v -0.4 4.1 1.5
v -0.2 4.1 1.5
v 0.5 4.1 1.5
v 0.7 4.1 1.5
v -0.4 4.1 1
v -0.2 4.1 1
v 0.5 4.1 1
v 0.7 4.1 1
v -0.2 4.2 1.5
v 0.5 4.2 1.5
v -0.2 4.2 1
v 0.5 4.2 1

# faces
f 3/1/1 2/1/1 1/1/1
f 4/1/1 2/1/1 3/1/1
f 7/1/1 6/1/1 5/1/1
f 8/1/1 6/1/1 7/1/1
f 9/1/1 7/1/1 5/1/1
f 10/1/1 6/1/1 8/1/1
f 11/1/1 9/1/1 5/1/1
f 11/1/1 10/1/1 9/1/1
f 12/1/1 6/1/1 10/1/1
f 12/1/1 10/1/1 11/1/1
f 15/1/1 14/1/1 13/1/1
f 16/1/1 14/1/1 15/1/1
f 19/2/1 18/2/1 17/2/1
f 20/2/1 19/2/1 17/2/1
f 21/2/1 20/2/1 17/2/1
f 22/2/1 20/2/1 21/2/1
f 25/2/1 24/2/1 23/2/1
f 26/2/1 24/2/1 25/2/1
f 29/2/1 28/2/1 27/2/1
f 30/2/1 28/2/1 29/2/1
f 33/2/1 32/2/1 31/2/1
f 34/2/1 32/2/1 33/2/1
f 37/2/1 36/2/1 35/2/1
f 38/2/1 36/2/1 37/2/1
f 41/2/1 40/2/1 39/2/1
f 42/2/1 40/2/1 41/2/1
f 45/2/1 44/2/1 43/2/1
f 46/2/1 44/2/1 45/2/1
f 49/2/1 48/2/1 47/2/1
f 50/2/1 48/2/1 49/2/1
f 53/2/1 52/2/1 51/2/1
f 54/2/1 52/2/1 53/2/1
f 57/2/1 56/2/1 55/2/1
f 58/2/1 56/2/1 57/2/1
f 61/2/1 60/2/1 59/2/1
f 62/2/1 60/2/1 61/2/1
f 67/1/1 64/1/1 63/1/1
f 68/1/1 64/1/1 67/1/1
f 69/1/1 66/1/1 65/1/1
f 70/1/1 66/1/1 69/1/1
f 75/1/1 72/1/1 71/1/1
f 76/1/1 72/1/1 75/1/1
f 77/1/1 74/1/1 73/1/1
f 78/1/1 74/1/1 77/1/1
f 79/1/2 80/1/2 83/1/2
f 83/1/2 80/1/2 84/1/2
f 81/1/2 82/1/2 85/1/2
f 85/1/2 82/1/2 86/1/2
f 87/1/2 88/1/2 91/1/2
f 91/1/2 88/1/2 92/1/2
f 89/1/2 90/1/2 93/1/2
f 93/1/2 90/1/2 94/1/2
f 95/2/2 96/2/2 97/2/2
f 97/2/2 96/2/2 98/2/2
f 99/2/2 100/2/2 101/2/2
f 101/2/2 100/2/2 102/2/2
f 103/2/2 104/2/2 105/2/2
f 105/2/2 104/2/2 106/2/2
f 107/2/2 108/2/2 109/2/2
f 109/2/2 108/2/2 110/2/2
f 111/2/2 112/2/2 113/2/2
f 113/2/2 112/2/2 114/2/2
f 115/2/2 116/2/2 117/2/2
f 117/2/2 116/2/2 118/2/2
f 119/2/2 120/2/2 121/2/2
f 121/2/2 120/2/2 122/2/2
f 123/2/2 124/2/2 125/2/2
f 125/2/2 124/2/2 126/2/2
f 127/2/2 128/2/2 129/2/2
f 129/2/2 128/2/2 130/2/2
f 131/2/2 132/2/2 133/2/2
f 133/2/2 132/2/2 134/2/2
f 135/2/2 136/2/2 137/2/2
f 135/2/2 137/2/2 138/2/2
f 135/2/2 138/2/2 139/2/2
f 139/2/2 138/2/2 140/2/2
f 141/1/2 142/1/2 143/1/2
f 143/1/2 142/1/2 144/1/2
f 145/1/2 146/1/2 147/1/2
f 147/1/2 146/1/2 148/1/2
f 145/1/2 147/1/2 149/1/2
f 148/1/2 146/1/2 150/1/2
f 145/1/2 149/1/2 151/1/2
f 149/1/2 150/1/2 151/1/2
f 150/1/2 146/1/2 152/1/2
f 151/1/2 150/1/2 152/1/2
f 153/1/2 154/1/2 155/1/2
f 155/1/2 154/1/2 156/1/2
f 160/2/3 158/2/3 157/2/3
f 161/2/3 158/2/3 160/2/3
f 164/2/3 160/2/3 159/2/3
f 164/2/3 162/2/3 161/2/3
f 164/2/3 161/2/3 160/2/3
f 165/2/3 162/2/3 164/2/3
f 168/2/3 164/2/3 163/2/3
f 168/2/3 166/2/3 165/2/3
f 168/2/3 165/2/3 164/2/3
f 169/2/3 166/2/3 168/2/3
f 172/2/3 168/2/3 167/2/3
f 172/2/3 170/2/3 169/2/3
f 172/2/3 169/2/3 168/2/3
f 173/2/3 170/2/3 172/2/3
f 176/2/3 172/2/3 171/2/3
f 176/2/3 174/2/3 173/2/3
f 176/2/3 173/2/3 172/2/3
f 177/2/3 174/2/3 176/2/3
f 179/2/3 176/2/3 175/2/3
f 179/2/3 178/2/3 177/2/3
f 179/2/3 177/2/3 176/2/3
f 180/2/3 178/2/3 179/2/3
f 181/2/3 178/2/3 180/2/3
f 182/2/3 178/2/3 181/2/3
f 183/2/3 181/2/3 180/2/3
f 184/2/3 181/2/3 183/2/3
f 185/2/3 181/2/3 184/2/3
f 186/2/3 181/2/3 185/2/3
f 187/2/3 185/2/3 184/2/3
f 188/2/3 185/2/3 187/2/3
f 189/2/3 185/2/3 188/2/3
f 190/2/3 185/2/3 189/2/3
f 191/2/3 189/2/3 188/2/3
f 192/2/3 189/2/3 191/2/3
f 193/2/3 189/2/3 192/2/3
f 194/2/3 189/2/3 193/2/3
f 195/2/3 193/2/3 192/2/3
f 196/2/3 193/2/3 195/2/3
f 197/2/3 193/2/3 196/2/3
f 198/2/3 193/2/3 197/2/3
f 199/2/3 197/2/3 196/2/3
f 200/2/3 197/2/3 199/2/3
f 203/1/3 202/1/3 201/1/3
f 204/1/3 202/1/3 203/1/3
f 207/1/3 206/1/3 205/1/3
f 208/1/3 206/1/3 207/1/3
f 211/1/3 210/1/3 209/1/3
f 212/1/3 210/1/3 211/1/3
f 215/1/3 214/1/3 213/1/3
f 216/1/3 214/1/3 215/1/3
f 219/1/3 218/1/3 217/1/3
f 220/1/3 218/1/3 219/1/3
f 223/1/3 222/1/3 221/1/3
f 224/1/3 222/1/3 223/1/3
f 227/1/3 226/1/3 225/1/3
f 228/1/3 226/1/3 227/1/3
f 231/1/3 230/1/3 229/1/3
f 232/1/3 230/1/3 231/1/3
f 233/2/4 234/2/4 238/2/4
f 235/2/4 236/2/4 239/2/4
f 237/2/4 238/2/4 242/2/4
f 239/2/4 240/2/4 243/2/4
f 241/2/4 242/2/4 246/2/4
f 243/2/4 244/2/4 247/2/4
f 245/2/4 246/2/4 250/2/4
f 247/2/4 248/2/4 251/2/4
f 249/2/4 250/2/4 254/2/4
f 251/2/4 252/2/4 255/2/4
f 253/2/4 254/2/4 257/2/4
f 254/2/4 250/2/4 258/2/4
f 257/2/4 254/2/4 258/2/4
f 255/2/4 256/2/4 259/2/4
f 251/2/4 255/2/4 259/2/4
f 259/2/4 256/2/4 260/2/4
f 258/2/4 250/2/4 261/2/4
f 250/2/4 246/2/4 262/2/4
f 261/2/4 250/2/4 262/2/4
f 247/2/4 251/2/4 263/2/4
f 251/2/4 259/2/4 263/2/4
f 263/2/4 259/2/4 264/2/4
f 262/2/4 246/2/4 265/2/4
f 246/2/4 242/2/4 266/2/4
f 265/2/4 246/2/4 266/2/4
f 243/2/4 247/2/4 267/2/4
f 247/2/4 263/2/4 267/2/4
f 267/2/4 263/2/4 268/2/4
f 266/2/4 242/2/4 269/2/4
f 242/2/4 238/2/4 270/2/4
f 269/2/4 242/2/4 270/2/4
f 239/2/4 243/2/4 271/2/4
f 243/2/4 267/2/4 271/2/4
f 271/2/4 267/2/4 272/2/4
f 270/2/4 238/2/4 273/2/4
f 238/2/4 234/2/4 274/2/4
f 273/2/4 238/2/4 274/2/4
f 235/2/4 239/2/4 275/2/4
f 239/2/4 271/2/4 275/2/4
f 275/2/4 271/2/4 276/2/4
f 274/2/4 234/2/4 277/2/4
f 277/2/4 234/2/4 278/2/4
f 235/2/4 275/2/4 279/2/4
f 279/2/4 275/2/4 280/2/4
f 281/1/4 282/1/4 283/1/4
f 283/1/4 282/1/4 284/1/4
f 285/1/4 286/1/4 287/1/4
f 287/1/4 286/1/4 288/1/4
f 289/1/4 290/1/4 291/1/4
f 291/1/4 290/1/4 292/1/4
f 293/1/4 294/1/4 295/1/4
f 295/1/4 294/1/4 296/1/4
f 297/1/4 298/1/4 299/1/4
f 299/1/4 298/1/4 300/1/4
f 301/1/4 302/1/4 303/1/4
f 303/1/4 302/1/4 304/1/4
f 305/1/4 306/1/4 307/1/4
f 307/1/4 306/1/4 308/1/4
f 309/1/4 310/1/4 311/1/4
f 311/1/4 310/1/4 312/1/4
f 313/1/4 314/1/4 315/1/4
f 315/1/4 314/1/4 316/1/4
f 319/2/5 318/2/5 317/2/5
f 320/2/5 318/2/5 319/2/5
f 325/2/5 322/2/5 321/2/5
f 326/2/5 322/2/5 325/2/5
f 327/2/5 324/2/5 323/2/5
f 328/2/5 324/2/5 327/2/5
f 333/2/5 330/2/5 329/2/5
f 334/2/5 330/2/5 333/2/5
f 335/2/5 332/2/5 331/2/5
f 336/2/5 332/2/5 335/2/5
f 341/2/5 338/2/5 337/2/5
f 342/2/5 338/2/5 341/2/5
f 343/2/5 340/2/5 339/2/5
f 344/2/5 340/2/5 343/2/5
f 349/2/5 346/2/5 345/2/5
f 350/2/5 346/2/5 349/2/5
f 351/2/5 348/2/5 347/2/5
f 352/2/5 348/2/5 351/2/5
f 357/2/5 354/2/5 353/2/5
f 358/2/5 354/2/5 357/2/5
f 359/2/5 356/2/5 355/2/5
f 360/2/5 356/2/5 359/2/5
f 366/1/5 362/1/5 361/1/5
f 366/1/5 364/1/5 363/1/5
f 366/1/5 363/1/5 362/1/5
f 367/1/5 364/1/5 366/1/5
f 368/1/5 364/1/5 367/1/5
f 369/1/5 364/1/5 368/1/5
f 371/1/5 366/1/5 365/1/5
f 371/1/5 367/1/5 366/1/5
f 372/1/5 367/1/5 371/1/5
f 373/1/5 370/1/5 369/1/5
f 373/1/5 369/1/5 368/1/5
f 374/1/5 370/1/5 373/1/5
f 375/1/5 371/1/5 365/1/5
f 378/1/5 370/1/5 374/1/5
f 379/1/5 376/1/5 375/1/5
f 379/1/5 375/1/5 365/1/5
f 380/1/5 376/1/5 379/1/5
f 381/1/5 378/1/5 377/1/5
f 382/1/5 370/1/5 378/1/5
f 382/1/5 378/1/5 381/1/5
f 383/1/5 379/1/5 365/1/5
f 384/1/5 379/1/5 383/1/5
f 385/1/5 370/1/5 382/1/5
f 386/1/5 370/1/5 385/1/5
f 391/1/5 388/1/5 387/1/5
f 392/1/5 388/1/5 391/1/5
f 393/1/5 390/1/5 389/1/5
f 394/1/5 390/1/5 393/1/5
f 395/1/6 396/1/6 399/1/6
f 399/1/6 396/1/6 400/1/6
f 397/1/6 398/1/6 401/1/6
f 401/1/6 398/1/6 402/1/6
f 403/1/6 404/1/6 408/1/6
f 405/1/6 406/1/6 408/1/6
f 404/1/6 405/1/6 408/1/6
f 408/1/6 406/1/6 409/1/6
f 409/1/6 406/1/6 410/1/6
f 410/1/6 406/1/6 411/1/6
f 407/1/6 408/1/6 413/1/6
f 408/1/6 409/1/6 413/1/6
f 413/1/6 409/1/6 414/1/6
f 411/1/6 412/1/6 415/1/6
f 410/1/6 411/1/6 415/1/6
f 415/1/6 412/1/6 416/1/6
f 407/1/6 413/1/6 417/1/6
f 416/1/6 412/1/6 420/1/6
f 417/1/6 418/1/6 421/1/6
f 407/1/6 417/1/6 421/1/6
f 421/1/6 418/1/6 422/1/6
f 419/1/6 420/1/6 423/1/6
f 420/1/6 412/1/6 424/1/6
f 423/1/6 420/1/6 424/1/6
f 407/1/6 421/1/6 425/1/6
f 425/1/6 421/1/6 426/1/6
f 424/1/6 412/1/6 427/1/6
f 427/1/6 412/1/6 428/1/6
f 429/2/6 430/2/6 433/2/6
f 433/2/6 430/2/6 434/2/6
f 431/2/6 432/2/6 435/2/6
f 435/2/6 432/2/6 436/2/6
f 437/2/6 438/2/6 441/2/6
f 441/2/6 438/2/6 442/2/6
f 439/2/6 440/2/6 443/2/6
f 443/2/6 440/2/6 444/2/6
f 445/2/6 446/2/6 449/2/6
f 449/2/6 446/2/6 450/2/6
f 447/2/6 448/2/6 451/2/6
f 451/2/6 448/2/6 452/2/6
f 453/2/6 454/2/6 457/2/6
f 457/2/6 454/2/6 458/2/6
f 455/2/6 456/2/6 459/2/6
f 459/2/6 456/2/6 460/2/6
f 461/2/6 462/2/6 465/2/6
f 465/2/6 462/2/6 466/2/6
f 463/2/6 464/2/6 467/2/6
f 467/2/6 464/2/6 468/2/6
f 469/2/6 470/2/6 471/2/6
f 471/2/6 470/2/6 472/2/6
