# MagicaVoxel @ Ephtracy

# group
o 

# material
mtllib Pillier.mtl
usemtl palette

# normals
vn -1 0 0
vn 1 0 0
vn 0 0 1
vn 0 0 -1
vn 0 -1 0
vn 0 1 0

# texcoords
vt 0.943359 0.5
vt 0.966797 0.5
vt 0.994141 0.5

# verts
v -3 0.1 3
v -3 0.1 2.4
v -3 0.1 -2.4
v -3 0.1 -3
v -3 25.6 3
v -3 25.6 2.4
v -3 25.6 -2.4
v -3 25.6 -3
v 2.9 0.1 2.9
v 2.9 0.1 2.4
v 2.9 0.1 -2.4
v 2.9 0.1 -2.9
v 2.9 25.6 2.9
v 2.9 25.6 2.4
v 2.9 25.6 -2.4
v 2.9 25.6 -2.9
v -2.9 0.1 2.9
v -2.9 0.1 2.4
v -2.9 0.1 -2.4
v -2.9 0.1 -2.9
v -2.9 25.6 2.9
v -2.9 25.6 2.4
v -2.9 25.6 -2.4
v -2.9 25.6 -2.9
v 3 0.1 3
v 3 0.1 2.4
v 3 0.1 -2.4
v 3 0.1 -3
v 3 25.6 3
v 3 25.6 2.4
v 3 25.6 -2.4
v 3 25.6 -3
v -3 0.1 3
v -3 25.6 3
v -2.4 0.1 3
v -2.4 25.6 3
v 2.4 0.1 3
v 2.4 25.6 3
v 3 0.1 3
v 3 25.6 3
v -2.9 0.1 -2.9
v -2.9 25.6 -2.9
v -2.4 0.1 -2.9
v -2.4 25.6 -2.9
v 2.4 0.1 -2.9
v 2.4 0.5 -2.9
v 2.4 25.6 -2.9
v 2.5 0.1 -2.9
v 2.5 0.5 -2.9
v 2.9 0.1 -2.9
v 2.9 25.6 -2.9
v -2.9 0.1 2.9
v -2.9 25.6 2.9
v -2.4 0.1 2.9
v -2.4 25.6 2.9
v 2.4 0.1 2.9
v 2.4 25.6 2.9
v 2.9 0.1 2.9
v 2.9 25.6 2.9
v -3 0.1 -3
v -3 25.6 -3
v -2.4 0.1 -3
v -2.4 25.6 -3
v 2.4 0.1 -3
v 2.4 0.5 -3
v 2.4 25.6 -3
v 2.5 0.1 -3
v 2.5 0.5 -3
v 3 0.1 -3
v 3 25.6 -3
v -3 0.1 3
v -2.4 0.1 3
v 2.4 0.1 3
v 3 0.1 3
v -2.9 0.1 2.9
v -2.4 0.1 2.9
v 2.4 0.1 2.9
v 2.9 0.1 2.9
v -3 0.1 2.4
v -2.9 0.1 2.4
v 2.9 0.1 2.4
v 3 0.1 2.4
v -3 0.1 -2.4
v -2.9 0.1 -2.4
v 2.9 0.1 -2.4
v 3 0.1 -2.4
v -2.9 0.1 -2.9
v -2.4 0.1 -2.9
v 2.4 0.1 -2.9
v 2.5 0.1 -2.9
v 2.9 0.1 -2.9
v -3 0.1 -3
v -2.4 0.1 -3
v 2.4 0.1 -3
v 2.5 0.1 -3
v 3 0.1 -3
v -3 25.6 3
v -2.4 25.6 3
v 2.4 25.6 3
v 3 25.6 3
v -2.9 25.6 2.9
v -2.4 25.6 2.9
v 2.4 25.6 2.9
v 2.9 25.6 2.9
v -3 25.6 2.4
v -2.9 25.6 2.4
v 2.9 25.6 2.4
v 3 25.6 2.4
v -3 25.6 -2.4
v -2.9 25.6 -2.4
v 2.9 25.6 -2.4
v 3 25.6 -2.4
v -2.9 25.6 -2.9
v -2.4 25.6 -2.9
v 2.4 25.6 -2.9
v 2.9 25.6 -2.9
v -3 25.6 -3
v -2.4 25.6 -3
v 2.4 25.6 -3
v 3 25.6 -3

# faces
f 5/3/1 2/3/1 1/3/1
f 6/2/1 3/2/1 2/2/1
f 6/3/1 2/3/1 5/3/1
f 7/3/1 4/3/1 3/3/1
f 7/2/1 3/2/1 6/2/1
f 8/3/1 4/3/1 7/3/1
f 13/3/1 10/3/1 9/3/1
f 14/2/1 11/2/1 10/2/1
f 14/3/1 10/3/1 13/3/1
f 15/3/1 12/3/1 11/3/1
f 15/2/1 11/2/1 14/2/1
f 16/3/1 12/3/1 15/3/1
f 17/3/2 18/3/2 21/3/2
f 18/2/2 19/2/2 22/2/2
f 21/3/2 18/3/2 22/3/2
f 19/3/2 20/3/2 23/3/2
f 22/2/2 19/2/2 23/2/2
f 23/3/2 20/3/2 24/3/2
f 25/3/2 26/3/2 29/3/2
f 26/2/2 27/2/2 30/2/2
f 29/3/2 26/3/2 30/3/2
f 27/3/2 28/3/2 31/3/2
f 30/2/2 27/2/2 31/2/2
f 31/3/2 28/3/2 32/3/2
f 35/3/3 34/3/3 33/3/3
f 36/3/3 34/3/3 35/3/3
f 37/2/3 36/2/3 35/2/3
f 38/2/3 36/2/3 37/2/3
f 39/3/3 38/3/3 37/3/3
f 40/3/3 38/3/3 39/3/3
f 43/3/3 42/3/3 41/3/3
f 44/3/3 42/3/3 43/3/3
f 45/2/3 44/2/3 43/2/3
f 46/2/3 44/2/3 45/2/3
f 47/2/3 44/2/3 46/2/3
f 48/1/3 46/1/3 45/1/3
f 49/3/3 47/3/3 46/3/3
f 49/1/3 46/1/3 48/1/3
f 50/3/3 49/3/3 48/3/3
f 51/3/3 47/3/3 49/3/3
f 51/3/3 49/3/3 50/3/3
f 52/3/4 53/3/4 54/3/4
f 54/3/4 53/3/4 55/3/4
f 54/2/4 55/2/4 56/2/4
f 56/2/4 55/2/4 57/2/4
f 56/3/4 57/3/4 58/3/4
f 58/3/4 57/3/4 59/3/4
f 60/3/4 61/3/4 62/3/4
f 62/3/4 61/3/4 63/3/4
f 62/2/4 63/2/4 64/2/4
f 64/2/4 63/2/4 65/2/4
f 65/2/4 63/2/4 66/2/4
f 64/1/4 65/1/4 67/1/4
f 65/3/4 66/3/4 68/3/4
f 67/1/4 65/1/4 68/1/4
f 67/3/4 68/3/4 69/3/4
f 68/3/4 66/3/4 70/3/4
f 69/3/4 68/3/4 70/3/4
f 75/3/5 72/3/5 71/3/5
f 76/2/5 73/2/5 72/2/5
f 76/3/5 72/3/5 75/3/5
f 77/3/5 74/3/5 73/3/5
f 77/2/5 73/2/5 76/2/5
f 78/3/5 74/3/5 77/3/5
f 79/3/5 75/3/5 71/3/5
f 80/3/5 75/3/5 79/3/5
f 81/3/5 74/3/5 78/3/5
f 82/3/5 74/3/5 81/3/5
f 83/2/5 80/2/5 79/2/5
f 84/2/5 80/2/5 83/2/5
f 85/2/5 82/2/5 81/2/5
f 86/2/5 82/2/5 85/2/5
f 87/3/5 84/3/5 83/3/5
f 91/3/5 86/3/5 85/3/5
f 92/3/5 87/3/5 83/3/5
f 92/3/5 88/3/5 87/3/5
f 93/2/5 89/2/5 88/2/5
f 93/3/5 88/3/5 92/3/5
f 94/1/5 90/1/5 89/1/5
f 94/2/5 89/2/5 93/2/5
f 95/3/5 91/3/5 90/3/5
f 95/1/5 90/1/5 94/1/5
f 96/3/5 86/3/5 91/3/5
f 96/3/5 91/3/5 95/3/5
f 97/3/6 98/3/6 101/3/6
f 98/2/6 99/2/6 102/2/6
f 101/3/6 98/3/6 102/3/6
f 99/3/6 100/3/6 103/3/6
f 102/2/6 99/2/6 103/2/6
f 103/3/6 100/3/6 104/3/6
f 97/3/6 101/3/6 105/3/6
f 105/3/6 101/3/6 106/3/6
f 104/3/6 100/3/6 107/3/6
f 107/3/6 100/3/6 108/3/6
f 105/2/6 106/2/6 109/2/6
f 109/2/6 106/2/6 110/2/6
f 107/2/6 108/2/6 111/2/6
f 111/2/6 108/2/6 112/2/6
f 109/3/6 110/3/6 113/3/6
f 111/3/6 112/3/6 116/3/6
f 109/3/6 113/3/6 117/3/6
f 113/3/6 114/3/6 117/3/6
f 114/2/6 115/2/6 118/2/6
f 117/3/6 114/3/6 118/3/6
f 115/3/6 116/3/6 119/3/6
f 118/2/6 115/2/6 119/2/6
f 116/3/6 112/3/6 120/3/6
f 119/3/6 116/3/6 120/3/6
